{
  "asset": {
    "version": "2.0",
    "generator": "Sketchup glTF Exporter v1.2.6 by Centaur"
  },
  "scene": 0,
  "scenes": [
    {
      "nodes": [
        0
      ]
    }
  ],
  "samplers": [
    {
    }
  ],
  "nodes": [
    {
      "name": "root",
      "children": [
        1
      ]
    },
    {
      "children": [
        2,
        3
      ],
      "mesh": 2
    },
    {
      "mesh": 0
    },
    {
      "mesh": 1
    }
  ],
  "materials": [
    {
      "pbrMetallicRoughness": {
        "baseColorFactor": [
          0.0041,
          0.4098,
          0.9914,
          1.0
        ],
        "metallicFactor": 0.1,
        "roughnessFactor": 0.9
      },
      "name": "Материал"
    }
  ],
  "meshes": [
    {
      "primitives": [
        {
          "attributes": {
            "POSITION": 0,
            "NORMAL": 1
          },
          "indices": 2,
          "mode": 4,
          "material": 0
        }
      ]
    },
    {
      "primitives": [
        {
          "attributes": {
            "POSITION": 0,
            "NORMAL": 1
          },
          "indices": 3,
          "mode": 4,
          "material": 0
        }
      ]
    },
    {
      "primitives": [
        {
          "attributes": {
            "POSITION": 0,
            "NORMAL": 1
          },
          "indices": 4,
          "mode": 4,
          "material": 0
        }
      ]
    }
  ],
  "accessors": [
    {
      "bufferView": 0,
      "componentType": 5126,
      "count": 10326,
      "type": "VEC3",
      "min": [
        -0.03197972963362834,
        -0.04929342827115172,
        -0.014227632734914484
      ],
      "max": [
        0.034502788313605925,
        0.04691793961333578,
        0.004712101810408853
      ]
    },
    {
      "bufferView": 1,
      "componentType": 5126,
      "count": 10326,
      "type": "VEC3",
      "min": [
        -0.8660254143209967,
        -0.9353955201555313,
        -1.0
      ],
      "max": [
        0.8660254143209967,
        0.9353936795116148,
        1.0
      ]
    },
    {
      "bufferView": 2,
      "componentType": 5123,
      "count": 12456,
      "type": "SCALAR"
    },
    {
      "bufferView": 2,
      "componentType": 5123,
      "count": 7416,
      "type": "SCALAR",
      "byteOffset": 24912
    },
    {
      "bufferView": 2,
      "componentType": 5123,
      "count": 912,
      "type": "SCALAR",
      "byteOffset": 39744
    }
  ],
  "bufferViews": [
    {
      "buffer": 0,
      "byteLength": 123912,
      "target": 34962,
      "byteStride": 12
    },
    {
      "buffer": 0,
      "byteOffset": 123912,
      "byteLength": 123912,
      "target": 34962,
      "byteStride": 12
    },
    {
      "buffer": 0,
      "byteOffset": 247824,
      "byteLength": 41568,
      "target": 34963
    }
  ],
  "buffers": [
    {
      "uri": "data:application/octet-stream;base64,",
      "byteLength": 289392
    }
  ]
}