{
  "asset": {
    "version": "2.0",
    "generator": "Sketchup glTF Exporter v1.2.6 by Centaur"
  },
  "scene": 0,
  "scenes": [
    {
      "nodes": [
        0
      ]
    }
  ],
  "samplers": [
    {
    }
  ],
  "nodes": [
    {
      "name": "root",
      "children": [
        1
      ]
    },
    {
      "name": "Diamond Structure Animated - Scenes show various angles",
      "children": [
        2,
        12,
        22,
        32
      ]
    },
    {
      "name": "Component#4",
      "children": [
        3,
        4,
        5,
        6,
        7,
        8,
        9,
        10,
        11
      ]
    },
    {
      "name": "Component#3",
      "mesh": 0
    },
    {
      "name": "Component#3",
      "mesh": 1
    },
    {
      "name": "Sphere-24",
      "mesh": 2
    },
    {
      "name": "Sphere-24#1",
      "mesh": 3
    },
    {
      "name": "Component#3",
      "mesh": 4
    },
    {
      "name": "Component#3",
      "mesh": 5
    },
    {
      "name": "Sphere-24",
      "mesh": 6
    },
    {
      "name": "Sphere-24",
      "mesh": 7
    },
    {
      "name": "Sphere-24",
      "mesh": 8
    },
    {
      "name": "Component#4",
      "children": [
        13,
        14,
        15,
        16,
        17,
        18,
        19,
        20,
        21
      ]
    },
    {
      "name": "Component#3",
      "mesh": 9
    },
    {
      "name": "Component#3",
      "mesh": 10
    },
    {
      "name": "Sphere-24",
      "mesh": 11
    },
    {
      "name": "Sphere-24#1",
      "mesh": 12
    },
    {
      "name": "Component#3",
      "mesh": 13
    },
    {
      "name": "Component#3",
      "mesh": 14
    },
    {
      "name": "Sphere-24",
      "mesh": 15
    },
    {
      "name": "Sphere-24",
      "mesh": 16
    },
    {
      "name": "Sphere-24",
      "mesh": 17
    },
    {
      "name": "Component#4",
      "children": [
        23,
        24,
        25,
        26,
        27,
        28,
        29,
        30,
        31
      ]
    },
    {
      "name": "Component#3",
      "mesh": 18
    },
    {
      "name": "Component#3",
      "mesh": 19
    },
    {
      "name": "Sphere-24",
      "mesh": 20
    },
    {
      "name": "Sphere-24#1",
      "mesh": 21
    },
    {
      "name": "Component#3",
      "mesh": 22
    },
    {
      "name": "Component#3",
      "mesh": 23
    },
    {
      "name": "Sphere-24",
      "mesh": 24
    },
    {
      "name": "Sphere-24",
      "mesh": 25
    },
    {
      "name": "Sphere-24",
      "mesh": 26
    },
    {
      "name": "Component#4",
      "children": [
        33,
        34,
        35,
        36,
        37,
        38,
        39,
        40,
        41
      ]
    },
    {
      "name": "Component#3",
      "mesh": 27
    },
    {
      "name": "Component#3",
      "mesh": 28
    },
    {
      "name": "Sphere-24",
      "mesh": 29
    },
    {
      "name": "Sphere-24#1",
      "mesh": 30
    },
    {
      "name": "Component#3",
      "mesh": 31
    },
    {
      "name": "Component#3",
      "mesh": 32
    },
    {
      "name": "Sphere-24",
      "mesh": 33
    },
    {
      "name": "Sphere-24",
      "mesh": 34
    },
    {
      "name": "Sphere-24",
      "mesh": 35
    }
  ],
  "materials": [
    {
      "pbrMetallicRoughness": {
        "baseColorFactor": [
          0.5356,
          0.5356,
          0.5356,
          1.0
        ],
        "metallicFactor": 0.1,
        "roughnessFactor": 0.9
      },
      "name": "0131_Серебристый"
    },
    {
      "pbrMetallicRoughness": {
        "baseColorFactor": [
          1.0,
          0.687,
          0.0,
          1.0
        ],
        "metallicFactor": 0.1,
        "roughnessFactor": 0.9
      },
      "name": "0046_Золотой"
    },
    {
      "pbrMetallicRoughness": {
        "baseColorFactor": [
          0.0,
          0.2632,
          0.2632,
          1.0
        ],
        "metallicFactor": 0.1,
        "roughnessFactor": 0.9
      },
      "name": "0080_Темный циан"
    }
  ],
  "meshes": [
    {
      "primitives": [
        {
          "attributes": {
            "POSITION": 0,
            "NORMAL": 1
          },
          "indices": 2,
          "mode": 4,
          "material": 0
        }
      ]
    },
    {
      "primitives": [
        {
          "attributes": {
            "POSITION": 0,
            "NORMAL": 1
          },
          "indices": 3,
          "mode": 4,
          "material": 0
        }
      ]
    },
    {
      "primitives": [
        {
          "attributes": {
            "POSITION": 0,
            "NORMAL": 1
          },
          "indices": 4,
          "mode": 4,
          "material": 1
        }
      ]
    },
    {
      "primitives": [
        {
          "attributes": {
            "POSITION": 0,
            "NORMAL": 1
          },
          "indices": 5,
          "mode": 4,
          "material": 2
        }
      ]
    },
    {
      "primitives": [
        {
          "attributes": {
            "POSITION": 0,
            "NORMAL": 1
          },
          "indices": 6,
          "mode": 4,
          "material": 0
        }
      ]
    },
    {
      "primitives": [
        {
          "attributes": {
            "POSITION": 0,
            "NORMAL": 1
          },
          "indices": 7,
          "mode": 4,
          "material": 0
        }
      ]
    },
    {
      "primitives": [
        {
          "attributes": {
            "POSITION": 0,
            "NORMAL": 1
          },
          "indices": 8,
          "mode": 4,
          "material": 1
        }
      ]
    },
    {
      "primitives": [
        {
          "attributes": {
            "POSITION": 0,
            "NORMAL": 1
          },
          "indices": 9,
          "mode": 4,
          "material": 1
        }
      ]
    },
    {
      "primitives": [
        {
          "attributes": {
            "POSITION": 0,
            "NORMAL": 1
          },
          "indices": 10,
          "mode": 4,
          "material": 1
        }
      ]
    },
    {
      "primitives": [
        {
          "attributes": {
            "POSITION": 0,
            "NORMAL": 1
          },
          "indices": 11,
          "mode": 4,
          "material": 0
        }
      ]
    },
    {
      "primitives": [
        {
          "attributes": {
            "POSITION": 0,
            "NORMAL": 1
          },
          "indices": 12,
          "mode": 4,
          "material": 0
        }
      ]
    },
    {
      "primitives": [
        {
          "attributes": {
            "POSITION": 0,
            "NORMAL": 1
          },
          "indices": 13,
          "mode": 4,
          "material": 1
        }
      ]
    },
    {
      "primitives": [
        {
          "attributes": {
            "POSITION": 0,
            "NORMAL": 1
          },
          "indices": 14,
          "mode": 4,
          "material": 2
        }
      ]
    },
    {
      "primitives": [
        {
          "attributes": {
            "POSITION": 0,
            "NORMAL": 1
          },
          "indices": 15,
          "mode": 4,
          "material": 0
        }
      ]
    },
    {
      "primitives": [
        {
          "attributes": {
            "POSITION": 0,
            "NORMAL": 1
          },
          "indices": 16,
          "mode": 4,
          "material": 0
        }
      ]
    },
    {
      "primitives": [
        {
          "attributes": {
            "POSITION": 0,
            "NORMAL": 1
          },
          "indices": 17,
          "mode": 4,
          "material": 1
        }
      ]
    },
    {
      "primitives": [
        {
          "attributes": {
            "POSITION": 0,
            "NORMAL": 1
          },
          "indices": 18,
          "mode": 4,
          "material": 1
        }
      ]
    },
    {
      "primitives": [
        {
          "attributes": {
            "POSITION": 0,
            "NORMAL": 1
          },
          "indices": 19,
          "mode": 4,
          "material": 1
        }
      ]
    },
    {
      "primitives": [
        {
          "attributes": {
            "POSITION": 0,
            "NORMAL": 1
          },
          "indices": 20,
          "mode": 4,
          "material": 0
        }
      ]
    },
    {
      "primitives": [
        {
          "attributes": {
            "POSITION": 0,
            "NORMAL": 1
          },
          "indices": 21,
          "mode": 4,
          "material": 0
        }
      ]
    },
    {
      "primitives": [
        {
          "attributes": {
            "POSITION": 0,
            "NORMAL": 1
          },
          "indices": 22,
          "mode": 4,
          "material": 1
        }
      ]
    },
    {
      "primitives": [
        {
          "attributes": {
            "POSITION": 0,
            "NORMAL": 1
          },
          "indices": 23,
          "mode": 4,
          "material": 2
        }
      ]
    },
    {
      "primitives": [
        {
          "attributes": {
            "POSITION": 0,
            "NORMAL": 1
          },
          "indices": 24,
          "mode": 4,
          "material": 0
        }
      ]
    },
    {
      "primitives": [
        {
          "attributes": {
            "POSITION": 0,
            "NORMAL": 1
          },
          "indices": 25,
          "mode": 4,
          "material": 0
        }
      ]
    },
    {
      "primitives": [
        {
          "attributes": {
            "POSITION": 0,
            "NORMAL": 1
          },
          "indices": 26,
          "mode": 4,
          "material": 1
        }
      ]
    },
    {
      "primitives": [
        {
          "attributes": {
            "POSITION": 0,
            "NORMAL": 1
          },
          "indices": 27,
          "mode": 4,
          "material": 1
        }
      ]
    },
    {
      "primitives": [
        {
          "attributes": {
            "POSITION": 0,
            "NORMAL": 1
          },
          "indices": 28,
          "mode": 4,
          "material": 1
        }
      ]
    },
    {
      "primitives": [
        {
          "attributes": {
            "POSITION": 0,
            "NORMAL": 1
          },
          "indices": 29,
          "mode": 4,
          "material": 0
        }
      ]
    },
    {
      "primitives": [
        {
          "attributes": {
            "POSITION": 0,
            "NORMAL": 1
          },
          "indices": 30,
          "mode": 4,
          "material": 0
        }
      ]
    },
    {
      "primitives": [
        {
          "attributes": {
            "POSITION": 0,
            "NORMAL": 1
          },
          "indices": 31,
          "mode": 4,
          "material": 1
        }
      ]
    },
    {
      "primitives": [
        {
          "attributes": {
            "POSITION": 0,
            "NORMAL": 1
          },
          "indices": 32,
          "mode": 4,
          "material": 2
        }
      ]
    },
    {
      "primitives": [
        {
          "attributes": {
            "POSITION": 0,
            "NORMAL": 1
          },
          "indices": 33,
          "mode": 4,
          "material": 0
        }
      ]
    },
    {
      "primitives": [
        {
          "attributes": {
            "POSITION": 0,
            "NORMAL": 1
          },
          "indices": 34,
          "mode": 4,
          "material": 0
        }
      ]
    },
    {
      "primitives": [
        {
          "attributes": {
            "POSITION": 0,
            "NORMAL": 1
          },
          "indices": 35,
          "mode": 4,
          "material": 1
        }
      ]
    },
    {
      "primitives": [
        {
          "attributes": {
            "POSITION": 0,
            "NORMAL": 1
          },
          "indices": 36,
          "mode": 4,
          "material": 1
        }
      ]
    },
    {
      "primitives": [
        {
          "attributes": {
            "POSITION": 0,
            "NORMAL": 1
          },
          "indices": 37,
          "mode": 4,
          "material": 1
        }
      ]
    }
  ],
  "accessors": [
    {
      "bufferView": 0,
      "componentType": 5126,
      "count": 9928,
      "type": "VEC3",
      "min": [
        -0.11999999452478671,
        1.8693876427498911e-16,
        -0.1928500065048262
      ],
      "max": [
        0.2212484536033268,
        0.3225375390698783,
        0.19356015500895257
      ]
    },
    {
      "bufferView": 1,
      "componentType": 5126,
      "count": 9928,
      "type": "VEC3",
      "min": [
        -0.9999999999999998,
        -1.0,
        -0.9999999999999998
      ],
      "max": [
        0.9999999999999998,
        1.0,
        0.9999999999999998
      ]
    },
    {
      "bufferView": 2,
      "componentType": 5123,
      "count": 852,
      "type": "SCALAR"
    },
    {
      "bufferView": 2,
      "componentType": 5123,
      "count": 852,
      "type": "SCALAR",
      "byteOffset": 1704
    },
    {
      "bufferView": 2,
      "componentType": 5123,
      "count": 1584,
      "type": "SCALAR",
      "byteOffset": 3408
    },
    {
      "bufferView": 2,
      "componentType": 5123,
      "count": 1584,
      "type": "SCALAR",
      "byteOffset": 6576
    },
    {
      "bufferView": 2,
      "componentType": 5123,
      "count": 852,
      "type": "SCALAR",
      "byteOffset": 9744
    },
    {
      "bufferView": 2,
      "componentType": 5123,
      "count": 852,
      "type": "SCALAR",
      "byteOffset": 11448
    },
    {
      "bufferView": 2,
      "componentType": 5123,
      "count": 1584,
      "type": "SCALAR",
      "byteOffset": 13152
    },
    {
      "bufferView": 2,
      "componentType": 5123,
      "count": 1584,
      "type": "SCALAR",
      "byteOffset": 16320
    },
    {
      "bufferView": 2,
      "componentType": 5123,
      "count": 1584,
      "type": "SCALAR",
      "byteOffset": 19488
    },
    {
      "bufferView": 2,
      "componentType": 5123,
      "count": 852,
      "type": "SCALAR",
      "byteOffset": 22656
    },
    {
      "bufferView": 2,
      "componentType": 5123,
      "count": 852,
      "type": "SCALAR",
      "byteOffset": 24360
    },
    {
      "bufferView": 2,
      "componentType": 5123,
      "count": 1584,
      "type": "SCALAR",
      "byteOffset": 26064
    },
    {
      "bufferView": 2,
      "componentType": 5123,
      "count": 1584,
      "type": "SCALAR",
      "byteOffset": 29232
    },
    {
      "bufferView": 2,
      "componentType": 5123,
      "count": 852,
      "type": "SCALAR",
      "byteOffset": 32400
    },
    {
      "bufferView": 2,
      "componentType": 5123,
      "count": 852,
      "type": "SCALAR",
      "byteOffset": 34104
    },
    {
      "bufferView": 2,
      "componentType": 5123,
      "count": 1584,
      "type": "SCALAR",
      "byteOffset": 35808
    },
    {
      "bufferView": 2,
      "componentType": 5123,
      "count": 1584,
      "type": "SCALAR",
      "byteOffset": 38976
    },
    {
      "bufferView": 2,
      "componentType": 5123,
      "count": 1584,
      "type": "SCALAR",
      "byteOffset": 42144
    },
    {
      "bufferView": 2,
      "componentType": 5123,
      "count": 852,
      "type": "SCALAR",
      "byteOffset": 45312
    },
    {
      "bufferView": 2,
      "componentType": 5123,
      "count": 852,
      "type": "SCALAR",
      "byteOffset": 47016
    },
    {
      "bufferView": 2,
      "componentType": 5123,
      "count": 1584,
      "type": "SCALAR",
      "byteOffset": 48720
    },
    {
      "bufferView": 2,
      "componentType": 5123,
      "count": 1584,
      "type": "SCALAR",
      "byteOffset": 51888
    },
    {
      "bufferView": 2,
      "componentType": 5123,
      "count": 852,
      "type": "SCALAR",
      "byteOffset": 55056
    },
    {
      "bufferView": 2,
      "componentType": 5123,
      "count": 852,
      "type": "SCALAR",
      "byteOffset": 56760
    },
    {
      "bufferView": 2,
      "componentType": 5123,
      "count": 1584,
      "type": "SCALAR",
      "byteOffset": 58464
    },
    {
      "bufferView": 2,
      "componentType": 5123,
      "count": 1584,
      "type": "SCALAR",
      "byteOffset": 61632
    },
    {
      "bufferView": 2,
      "componentType": 5123,
      "count": 1584,
      "type": "SCALAR",
      "byteOffset": 64800
    },
    {
      "bufferView": 2,
      "componentType": 5123,
      "count": 852,
      "type": "SCALAR",
      "byteOffset": 67968
    },
    {
      "bufferView": 2,
      "componentType": 5123,
      "count": 852,
      "type": "SCALAR",
      "byteOffset": 69672
    },
    {
      "bufferView": 2,
      "componentType": 5123,
      "count": 1584,
      "type": "SCALAR",
      "byteOffset": 71376
    },
    {
      "bufferView": 2,
      "componentType": 5123,
      "count": 1584,
      "type": "SCALAR",
      "byteOffset": 74544
    },
    {
      "bufferView": 2,
      "componentType": 5123,
      "count": 852,
      "type": "SCALAR",
      "byteOffset": 77712
    },
    {
      "bufferView": 2,
      "componentType": 5123,
      "count": 852,
      "type": "SCALAR",
      "byteOffset": 79416
    },
    {
      "bufferView": 2,
      "componentType": 5123,
      "count": 1584,
      "type": "SCALAR",
      "byteOffset": 81120
    },
    {
      "bufferView": 2,
      "componentType": 5123,
      "count": 1584,
      "type": "SCALAR",
      "byteOffset": 84288
    },
    {
      "bufferView": 2,
      "componentType": 5123,
      "count": 1584,
      "type": "SCALAR",
      "byteOffset": 87456
    }
  ],
  "bufferViews": [
    {
      "buffer": 0,
      "byteLength": 119136,
      "target": 34962,
      "byteStride": 12
    },
    {
      "buffer": 0,
      "byteOffset": 119136,
      "byteLength": 119136,
      "target": 34962,
      "byteStride": 12
    },
    {
      "buffer": 0,
      "byteOffset": 238272,
      "byteLength": 90624,
      "target": 34963
    }
  ],
  "buffers": [
    {
      "uri": "data:application/octet-stream;base64,",
      "byteLength": 328896
    }
  ]
}