{
  "asset": {
    "version": "2.0",
    "generator": "Sketchup glTF Exporter v1.2.6 by Centaur"
  },
  "scene": 0,
  "scenes": [
    {
      "nodes": [
        0
      ]
    }
  ],
  "samplers": [
    {
    }
  ],
  "nodes": [
    {
      "name": "root",
      "children": [
        1
      ]
    },
    {
      "name": "Molécula de Agua",
      "children": [
        2
      ]
    },
    {
      "children": [
        3,
        4,
        5,
        8,
        11
      ]
    },
    {
      "mesh": 0
    },
    {
      "mesh": 1
    },
    {
      "children": [
        6,
        7
      ]
    },
    {
      "mesh": 2
    },
    {
      "name": "O#2",
      "mesh": 3
    },
    {
      "children": [
        9,
        10
      ]
    },
    {
      "mesh": 4
    },
    {
      "name": "H",
      "mesh": 5
    },
    {
      "children": [
        12,
        13
      ]
    },
    {
      "mesh": 6
    },
    {
      "name": "H",
      "mesh": 7
    }
  ],
  "materials": [
    {
      "pbrMetallicRoughness": {
        "baseColorFactor": [
          0.4423,
          0.7519,
          0.7969,
          1.0
        ],
        "metallicFactor": 0.1,
        "roughnessFactor": 0.9
      },
      "name": "0094_Туманно-голубой"
    },
    {
      "pbrMetallicRoughness": {
        "baseColorFactor": [
          0.0582,
          0.2271,
          0.4647,
          1.0
        ],
        "metallicFactor": 0.1,
        "roughnessFactor": 0.9
      },
      "name": "0100_Голубовато-стальной"
    },
    {
      "pbrMetallicRoughness": {
        "baseColorFactor": [
          1.0,
          0.9574,
          0.9574,
          1.0
        ],
        "metallicFactor": 0.1,
        "roughnessFactor": 0.9
      },
      "name": "0010_Снежно-белый"
    }
  ],
  "meshes": [
    {
      "primitives": [
        {
          "attributes": {
            "POSITION": 0,
            "NORMAL": 1
          },
          "indices": 2,
          "mode": 4,
          "material": 0
        }
      ]
    },
    {
      "primitives": [
        {
          "attributes": {
            "POSITION": 0,
            "NORMAL": 1
          },
          "indices": 3,
          "mode": 4,
          "material": 0
        }
      ]
    },
    {
      "primitives": [
        {
          "attributes": {
            "POSITION": 0,
            "NORMAL": 1
          },
          "indices": 4,
          "mode": 4,
          "material": 1
        }
      ]
    },
    {
      "primitives": [
        {
          "attributes": {
            "POSITION": 0,
            "NORMAL": 1
          },
          "indices": 5,
          "mode": 4,
          "material": 2
        }
      ]
    },
    {
      "primitives": [
        {
          "attributes": {
            "POSITION": 0,
            "NORMAL": 1
          },
          "indices": 6,
          "mode": 4,
          "material": 1
        }
      ]
    },
    {
      "primitives": [
        {
          "attributes": {
            "POSITION": 0,
            "NORMAL": 1
          },
          "indices": 7,
          "mode": 4,
          "material": 2
        }
      ]
    },
    {
      "primitives": [
        {
          "attributes": {
            "POSITION": 0,
            "NORMAL": 1
          },
          "indices": 8,
          "mode": 4,
          "material": 1
        }
      ]
    },
    {
      "primitives": [
        {
          "attributes": {
            "POSITION": 0,
            "NORMAL": 1
          },
          "indices": 9,
          "mode": 4,
          "material": 2
        }
      ]
    }
  ],
  "accessors": [
    {
      "bufferView": 0,
      "componentType": 5126,
      "count": 1810,
      "type": "VEC3",
      "min": [
        -0.2979187402925235,
        5.943971535137136e-17,
        -0.6809334795229544
      ],
      "max": [
        0.2929432273128159,
        0.834898551315058,
        0.686024636779231
      ]
    },
    {
      "bufferView": 1,
      "componentType": 5126,
      "count": 1810,
      "type": "VEC3",
      "min": [
        -1.0,
        -1.0,
        -1.0
      ],
      "max": [
        1.0,
        1.0,
        1.0
      ]
    },
    {
      "bufferView": 2,
      "componentType": 5123,
      "count": 276,
      "type": "SCALAR"
    },
    {
      "bufferView": 2,
      "componentType": 5123,
      "count": 276,
      "type": "SCALAR",
      "byteOffset": 552
    },
    {
      "bufferView": 2,
      "componentType": 5123,
      "count": 1584,
      "type": "SCALAR",
      "byteOffset": 1104
    },
    {
      "bufferView": 2,
      "componentType": 5123,
      "count": 768,
      "type": "SCALAR",
      "byteOffset": 4272
    },
    {
      "bufferView": 2,
      "componentType": 5123,
      "count": 1584,
      "type": "SCALAR",
      "byteOffset": 5808
    },
    {
      "bufferView": 2,
      "componentType": 5123,
      "count": 636,
      "type": "SCALAR",
      "byteOffset": 8976
    },
    {
      "bufferView": 2,
      "componentType": 5123,
      "count": 1584,
      "type": "SCALAR",
      "byteOffset": 10248
    },
    {
      "bufferView": 2,
      "componentType": 5123,
      "count": 636,
      "type": "SCALAR",
      "byteOffset": 13416
    }
  ],
  "bufferViews": [
    {
      "buffer": 0,
      "byteLength": 21720,
      "target": 34962,
      "byteStride": 12
    },
    {
      "buffer": 0,
      "byteOffset": 21720,
      "byteLength": 21720,
      "target": 34962,
      "byteStride": 12
    },
    {
      "buffer": 0,
      "byteOffset": 43440,
      "byteLength": 14688,
      "target": 34963
    }
  ],
  "buffers": [
    {
      "uri": "data:application/octet-stream;base64,",
      "byteLength": 58128
    }
  ]
}