{
    "asset" : {
        "generator" : "Khronos glTF Blender I/O v0.9.36",
        "version" : "2.0"
    },
    "scene" : 0,
    "scenes" : [
        {
            "name" : "Scene",
            "nodes" : [
                0
            ]
        }
    ],
    "nodes" : [
        {
            "mesh" : 0,
            "name" : "Tunel-v1",
            "rotation" : [
                0.7071068286895752,
                0,
                0,
                0.7071067094802856
            ]
        }
    ],
    "materials" : [
        {
            "doubleSided" : true,
            "name" : "Color_M06",
            "pbrMetallicRoughness" : {
                "baseColorFactor" : [
                    0.33725500106811523,
                    0.33725500106811523,
                    0.33725500106811523,
                    1
                ],
                "metallicFactor" : 0,
                "roughnessFactor" : 1
            }
        },
        {
            "doubleSided" : true,
            "name" : "FrontColor",
            "pbrMetallicRoughness" : {
                "baseColorFactor" : [
                    1,
                    1,
                    1,
                    1
                ],
                "metallicFactor" : 0,
                "roughnessFactor" : 1
            }
        },
        {
            "doubleSided" : true,
            "name" : "Color_M07",
            "pbrMetallicRoughness" : {
                "baseColorFactor" : [
                    0.22745099663734436,
                    0.22745099663734436,
                    0.22745099663734436,
                    1
                ],
                "metallicFactor" : 0,
                "roughnessFactor" : 1
            }
        },
        {
            "doubleSided" : true,
            "name" : "Color_A06",
            "pbrMetallicRoughness" : {
                "baseColorFactor" : [
                    0.800000011920929,
                    0,
                    0,
                    1
                ],
                "metallicFactor" : 0,
                "roughnessFactor" : 1
            }
        },
        {
            "doubleSided" : true,
            "name" : "Color_M00",
            "pbrMetallicRoughness" : {
                "baseColorFactor" : [
                    1,
                    1,
                    1,
                    1
                ],
                "metallicFactor" : 0,
                "roughnessFactor" : 1
            }
        },
        {
            "doubleSided" : true,
            "name" : "Color_I05",
            "pbrMetallicRoughness" : {
                "baseColorFactor" : [
                    0,
                    0,
                    1,
                    1
                ],
                "metallicFactor" : 0,
                "roughnessFactor" : 1
            }
        },
        {
            "doubleSided" : true,
            "name" : "Color_M05",
            "pbrMetallicRoughness" : {
                "baseColorFactor" : [
                    0.4470590054988861,
                    0.4470590054988861,
                    0.4470590054988861,
                    1
                ],
                "metallicFactor" : 0,
                "roughnessFactor" : 1
            }
        },
        {
            "doubleSided" : true,
            "name" : "Resin_Blue",
            "pbrMetallicRoughness" : {
                "baseColorTexture" : {
                    "index" : 0,
                    "texCoord" : 0
                },
                "metallicFactor" : 0,
                "roughnessFactor" : 1
            }
        },
        {
            "doubleSided" : true,
            "name" : "Color_A05",
            "pbrMetallicRoughness" : {
                "baseColorFactor" : [
                    1,
                    0,
                    0,
                    1
                ],
                "metallicFactor" : 0,
                "roughnessFactor" : 1
            }
        },
        {
            "doubleSided" : true,
            "name" : "Color_M02",
            "pbrMetallicRoughness" : {
                "baseColorFactor" : [
                    0.7764710187911987,
                    0.7764710187911987,
                    0.7764710187911987,
                    1
                ],
                "metallicFactor" : 0,
                "roughnessFactor" : 1
            }
        }
    ],
    "meshes" : [
        {
            "name" : "Tunel-v1",
            "primitives" : [
                {
                    "attributes" : {
                        "POSITION" : 0,
                        "NORMAL" : 1,
                        "TEXCOORD_0" : 2
                    },
                    "indices" : 3,
                    "material" : 0
                },
                {
                    "attributes" : {
                        "POSITION" : 4,
                        "NORMAL" : 5,
                        "TEXCOORD_0" : 6
                    },
                    "indices" : 7,
                    "material" : 1
                },
                {
                    "attributes" : {
                        "POSITION" : 8,
                        "NORMAL" : 9,
                        "TEXCOORD_0" : 10
                    },
                    "indices" : 11,
                    "material" : 2
                },
                {
                    "attributes" : {
                        "POSITION" : 12,
                        "NORMAL" : 13,
                        "TEXCOORD_0" : 14
                    },
                    "indices" : 15,
                    "material" : 3
                },
                {
                    "attributes" : {
                        "POSITION" : 16,
                        "NORMAL" : 17,
                        "TEXCOORD_0" : 18
                    },
                    "indices" : 19,
                    "material" : 4
                },
                {
                    "attributes" : {
                        "POSITION" : 20,
                        "NORMAL" : 21,
                        "TEXCOORD_0" : 22
                    },
                    "indices" : 23,
                    "material" : 5
                },
                {
                    "attributes" : {
                        "POSITION" : 24,
                        "NORMAL" : 25,
                        "TEXCOORD_0" : 26
                    },
                    "indices" : 27,
                    "material" : 6
                },
                {
                    "attributes" : {
                        "POSITION" : 28,
                        "NORMAL" : 29,
                        "TEXCOORD_0" : 30
                    },
                    "indices" : 31,
                    "material" : 7
                },
                {
                    "attributes" : {
                        "POSITION" : 32,
                        "NORMAL" : 33,
                        "TEXCOORD_0" : 34
                    },
                    "indices" : 35,
                    "material" : 8
                },
                {
                    "attributes" : {
                        "POSITION" : 36,
                        "NORMAL" : 37,
                        "TEXCOORD_0" : 38
                    },
                    "indices" : 39,
                    "material" : 9
                }
            ]
        }
    ],
    "textures" : [
        {
            "source" : 0
        }
    ],
    "images" : [
        {
            "bufferView" : 32,
            "mimeType" : "image/jpeg",
            "name" : "Resin_Blue"
        }
    ],
    "accessors" : [
        {
            "bufferView" : 0,
            "componentType" : 5126,
            "count" : 24,
            "max" : [
                1.2643100023269653,
                20.65250015258789,
                1.2468400200305041e-05
            ],
            "min" : [
                -0.7756950259208679,
                19.642499923706055,
                -1.2999900579452515
            ],
            "type" : "VEC3"
        },
        {
            "bufferView" : 1,
            "componentType" : 5126,
            "count" : 24,
            "type" : "VEC3"
        },
        {
            "bufferView" : 2,
            "componentType" : 5126,
            "count" : 24,
            "type" : "VEC2"
        },
        {
            "bufferView" : 3,
            "componentType" : 5123,
            "count" : 36,
            "type" : "SCALAR"
        },
        {
            "bufferView" : 4,
            "componentType" : 5126,
            "count" : 48,
            "max" : [
                0.4237839877605438,
                20.343000411987305,
                -0.9778050184249878
            ],
            "min" : [
                0.06558190286159515,
                20.02429962158203,
                -1.1412700414657593
            ],
            "type" : "VEC3"
        },
        {
            "bufferView" : 5,
            "componentType" : 5126,
            "count" : 48,
            "type" : "VEC3"
        },
        {
            "bufferView" : 6,
            "componentType" : 5126,
            "count" : 48,
            "type" : "VEC2"
        },
        {
            "bufferView" : 7,
            "componentType" : 5123,
            "count" : 144,
            "type" : "SCALAR"
        },
        {
            "bufferView" : 8,
            "componentType" : 5126,
            "count" : 240,
            "max" : [
                0.4237839877605438,
                20.343000411987305,
                -0.9778050184249878
            ],
            "min" : [
                0.06558190286159515,
                20.019699096679688,
                -1.1501699686050415
            ],
            "type" : "VEC3"
        },
        {
            "bufferView" : 9,
            "componentType" : 5126,
            "count" : 240,
            "type" : "VEC3"
        },
        {
            "bufferView" : 10,
            "componentType" : 5126,
            "count" : 240,
            "type" : "VEC2"
        },
        {
            "bufferView" : 11,
            "componentType" : 5123,
            "count" : 432,
            "type" : "SCALAR"
        },
        {
            "bufferView" : 12,
            "componentType" : 5126,
            "count" : 120,
            "max" : [
                0.40470999479293823,
                20.326000213623047,
                -0.9865090250968933
            ],
            "min" : [
                0.08465509861707687,
                20.00469970703125,
                -1.2037500143051147
            ],
            "type" : "VEC3"
        },
        {
            "bufferView" : 13,
            "componentType" : 5126,
            "count" : 120,
            "type" : "VEC3"
        },
        {
            "bufferView" : 14,
            "componentType" : 5126,
            "count" : 120,
            "type" : "VEC2"
        },
        {
            "bufferView" : 15,
            "componentType" : 5123,
            "count" : 210,
            "type" : "SCALAR"
        },
        {
            "bufferView" : 16,
            "componentType" : 5126,
            "count" : 1214,
            "max" : [
                7.683159828186035,
                21.681499481201172,
                1.2468400200305041e-05
            ],
            "min" : [
                -7.194550037384033,
                -21.558500289916992,
                -6.480000019073486
            ],
            "type" : "VEC3"
        },
        {
            "bufferView" : 17,
            "componentType" : 5126,
            "count" : 1214,
            "type" : "VEC3"
        },
        {
            "bufferView" : 18,
            "componentType" : 5126,
            "count" : 1214,
            "type" : "VEC2"
        },
        {
            "bufferView" : 19,
            "componentType" : 5123,
            "count" : 2628,
            "type" : "SCALAR"
        },
        {
            "bufferView" : 20,
            "componentType" : 5126,
            "count" : 32,
            "max" : [
                7.283160209655762,
                21.40489959716797,
                -2.6394200325012207
            ],
            "min" : [
                -6.794549942016602,
                -18.131900787353516,
                -3.840559959411621
            ],
            "type" : "VEC3"
        },
        {
            "bufferView" : 21,
            "componentType" : 5126,
            "count" : 32,
            "type" : "VEC3"
        },
        {
            "bufferView" : 22,
            "componentType" : 5126,
            "count" : 32,
            "type" : "VEC2"
        },
        {
            "bufferView" : 23,
            "componentType" : 5123,
            "count" : 48,
            "type" : "SCALAR"
        },
        {
            "bufferView" : 24,
            "componentType" : 5126,
            "count" : 8760,
            "max" : [
                6.933159828186035,
                22.061500549316406,
                1.2468400200305041e-05
            ],
            "min" : [
                -6.444550037384033,
                -18.40850067138672,
                -6.479990005493164
            ],
            "type" : "VEC3"
        },
        {
            "bufferView" : 25,
            "componentType" : 5126,
            "count" : 8760,
            "type" : "VEC3"
        },
        {
            "bufferView" : 26,
            "componentType" : 5126,
            "count" : 8760,
            "type" : "VEC2"
        },
        {
            "bufferView" : 27,
            "componentType" : 5123,
            "count" : 15906,
            "type" : "SCALAR"
        },
        {
            "bufferView" : 28,
            "componentType" : 5126,
            "count" : 44,
            "max" : [
                7.683159828186035,
                21.681499481201172,
                -6.479990005493164
            ],
            "min" : [
                -7.194550037384033,
                -21.558500289916992,
                -6.480000019073486
            ],
            "type" : "VEC3"
        },
        {
            "bufferView" : 29,
            "componentType" : 5126,
            "count" : 44,
            "type" : "VEC3"
        },
        {
            "bufferView" : 30,
            "componentType" : 5126,
            "count" : 44,
            "type" : "VEC2"
        },
        {
            "bufferView" : 31,
            "componentType" : 5123,
            "count" : 126,
            "type" : "SCALAR"
        },
        {
            "bufferView" : 33,
            "componentType" : 5126,
            "count" : 3936,
            "max" : [
                3.0782101154327393,
                22.061500549316406,
                -5.161809921264648
            ],
            "min" : [
                -2.5621399879455566,
                22.0314998626709,
                -5.480710029602051
            ],
            "type" : "VEC3"
        },
        {
            "bufferView" : 34,
            "componentType" : 5126,
            "count" : 3936,
            "type" : "VEC3"
        },
        {
            "bufferView" : 35,
            "componentType" : 5126,
            "count" : 3936,
            "type" : "VEC2"
        },
        {
            "bufferView" : 36,
            "componentType" : 5123,
            "count" : 7740,
            "type" : "SCALAR"
        },
        {
            "bufferView" : 37,
            "componentType" : 5126,
            "count" : 648,
            "max" : [
                0.5063650012016296,
                19.949899673461914,
                -0.8525639772415161
            ],
            "min" : [
                -0.04459730163216591,
                19.77199935913086,
                -0.9554160237312317
            ],
            "type" : "VEC3"
        },
        {
            "bufferView" : 38,
            "componentType" : 5126,
            "count" : 648,
            "type" : "VEC3"
        },
        {
            "bufferView" : 39,
            "componentType" : 5126,
            "count" : 648,
            "type" : "VEC2"
        },
        {
            "bufferView" : 40,
            "componentType" : 5123,
            "count" : 1248,
            "type" : "SCALAR"
        }
    ],
    "bufferViews" : [
        {
            "buffer" : 0,
            "byteLength" : 288,
            "byteOffset" : 0
        },
        {
            "buffer" : 0,
            "byteLength" : 288,
            "byteOffset" : 288
        },
        {
            "buffer" : 0,
            "byteLength" : 192,
            "byteOffset" : 576
        },
        {
            "buffer" : 0,
            "byteLength" : 72,
            "byteOffset" : 768
        },
        {
            "buffer" : 0,
            "byteLength" : 576,
            "byteOffset" : 840
        },
        {
            "buffer" : 0,
            "byteLength" : 576,
            "byteOffset" : 1416
        },
        {
            "buffer" : 0,
            "byteLength" : 384,
            "byteOffset" : 1992
        },
        {
            "buffer" : 0,
            "byteLength" : 288,
            "byteOffset" : 2376
        },
        {
            "buffer" : 0,
            "byteLength" : 2880,
            "byteOffset" : 2664
        },
        {
            "buffer" : 0,
            "byteLength" : 2880,
            "byteOffset" : 5544
        },
        {
            "buffer" : 0,
            "byteLength" : 1920,
            "byteOffset" : 8424
        },
        {
            "buffer" : 0,
            "byteLength" : 864,
            "byteOffset" : 10344
        },
        {
            "buffer" : 0,
            "byteLength" : 1440,
            "byteOffset" : 11208
        },
        {
            "buffer" : 0,
            "byteLength" : 1440,
            "byteOffset" : 12648
        },
        {
            "buffer" : 0,
            "byteLength" : 960,
            "byteOffset" : 14088
        },
        {
            "buffer" : 0,
            "byteLength" : 420,
            "byteOffset" : 15048
        },
        {
            "buffer" : 0,
            "byteLength" : 14568,
            "byteOffset" : 15468
        },
        {
            "buffer" : 0,
            "byteLength" : 14568,
            "byteOffset" : 30036
        },
        {
            "buffer" : 0,
            "byteLength" : 9712,
            "byteOffset" : 44604
        },
        {
            "buffer" : 0,
            "byteLength" : 5256,
            "byteOffset" : 54316
        },
        {
            "buffer" : 0,
            "byteLength" : 384,
            "byteOffset" : 59572
        },
        {
            "buffer" : 0,
            "byteLength" : 384,
            "byteOffset" : 59956
        },
        {
            "buffer" : 0,
            "byteLength" : 256,
            "byteOffset" : 60340
        },
        {
            "buffer" : 0,
            "byteLength" : 96,
            "byteOffset" : 60596
        },
        {
            "buffer" : 0,
            "byteLength" : 105120,
            "byteOffset" : 60692
        },
        {
            "buffer" : 0,
            "byteLength" : 105120,
            "byteOffset" : 165812
        },
        {
            "buffer" : 0,
            "byteLength" : 70080,
            "byteOffset" : 270932
        },
        {
            "buffer" : 0,
            "byteLength" : 31812,
            "byteOffset" : 341012
        },
        {
            "buffer" : 0,
            "byteLength" : 528,
            "byteOffset" : 372824
        },
        {
            "buffer" : 0,
            "byteLength" : 528,
            "byteOffset" : 373352
        },
        {
            "buffer" : 0,
            "byteLength" : 352,
            "byteOffset" : 373880
        },
        {
            "buffer" : 0,
            "byteLength" : 252,
            "byteOffset" : 374232
        },
        {
            "buffer" : 0,
            "byteLength" : 16181,
            "byteOffset" : 374484
        },
        {
            "buffer" : 0,
            "byteLength" : 47232,
            "byteOffset" : 390668
        },
        {
            "buffer" : 0,
            "byteLength" : 47232,
            "byteOffset" : 437900
        },
        {
            "buffer" : 0,
            "byteLength" : 31488,
            "byteOffset" : 485132
        },
        {
            "buffer" : 0,
            "byteLength" : 15480,
            "byteOffset" : 516620
        },
        {
            "buffer" : 0,
            "byteLength" : 7776,
            "byteOffset" : 532100
        },
        {
            "buffer" : 0,
            "byteLength" : 7776,
            "byteOffset" : 539876
        },
        {
            "buffer" : 0,
            "byteLength" : 5184,
            "byteOffset" : 547652
        },
        {
            "buffer" : 0,
            "byteLength" : 2496,
            "byteOffset" : 552836
        }
    ],
    "buffers" : [
        {
            "byteLength" : 555332,
            "uri" : "data:application/octet-stream;base64,"
        }
    ]
}
