{
    "asset" : {
        "generator" : "Khronos glTF Blender I/O v0.9.36",
        "version" : "2.0"
    },
    "scene" : 0,
    "scenes" : [
        {
            "name" : "Scene",
            "nodes" : [
                0
            ]
        }
    ],
    "nodes" : [
        {
            "mesh" : 0,
            "name" : "Tunel-v2-1",
            "rotation" : [
                0.7071068286895752,
                0,
                0,
                0.7071067094802856
            ]
        }
    ],
    "materials" : [
        {
            "doubleSided" : true,
            "name" : "Color_M06",
            "pbrMetallicRoughness" : {
                "baseColorFactor" : [
                    0.33725500106811523,
                    0.33725500106811523,
                    0.33725500106811523,
                    1
                ],
                "metallicFactor" : 0,
                "roughnessFactor" : 1
            }
        },
        {
            "doubleSided" : true,
            "name" : "FrontColor",
            "pbrMetallicRoughness" : {
                "baseColorFactor" : [
                    1,
                    1,
                    1,
                    1
                ],
                "metallicFactor" : 0,
                "roughnessFactor" : 1
            }
        },
        {
            "doubleSided" : true,
            "name" : "Color_M07",
            "pbrMetallicRoughness" : {
                "baseColorFactor" : [
                    0.22745099663734436,
                    0.22745099663734436,
                    0.22745099663734436,
                    1
                ],
                "metallicFactor" : 0,
                "roughnessFactor" : 1
            }
        },
        {
            "doubleSided" : true,
            "name" : "Color_A06",
            "pbrMetallicRoughness" : {
                "baseColorFactor" : [
                    0.800000011920929,
                    0,
                    0,
                    1
                ],
                "metallicFactor" : 0,
                "roughnessFactor" : 1
            }
        },
        {
            "doubleSided" : true,
            "name" : "_",
            "pbrMetallicRoughness" : {
                "baseColorFactor" : [
                    0.11764699965715408,
                    0.11764699965715408,
                    0.11764699965715408,
                    1
                ],
                "metallicFactor" : 0,
                "roughnessFactor" : 1
            }
        },
        {
            "doubleSided" : true,
            "emissiveFactor" : [
                0.4341537058353424,
                0,
                0.9911022186279297
            ],
            "name" : "_8",
            "pbrMetallicRoughness" : {
                "baseColorFactor" : [
                    0.4352940022945404,
                    0,
                    0.992156982421875,
                    1
                ],
                "metallicFactor" : 0,
                "roughnessFactor" : 1
            }
        },
        {
            "doubleSided" : true,
            "emissiveFactor" : [
                0.44520121812820435,
                0.7912980914115906,
                0.7454043626785278
            ],
            "name" : "_14",
            "pbrMetallicRoughness" : {
                "baseColorFactor" : [
                    0.443136990070343,
                    0.792156994342804,
                    0.7450979948043823,
                    1
                ],
                "metallicFactor" : 0,
                "roughnessFactor" : 1
            }
        },
        {
            "doubleSided" : true,
            "name" : "Color_A05",
            "pbrMetallicRoughness" : {
                "baseColorFactor" : [
                    1,
                    0,
                    0,
                    1
                ],
                "metallicFactor" : 0,
                "roughnessFactor" : 1
            }
        },
        {
            "doubleSided" : true,
            "name" : "Color_M02",
            "pbrMetallicRoughness" : {
                "baseColorFactor" : [
                    0.7764710187911987,
                    0.7764710187911987,
                    0.7764710187911987,
                    1
                ],
                "metallicFactor" : 0,
                "roughnessFactor" : 1
            }
        }
    ],
    "meshes" : [
        {
            "name" : "Tunel-v2-1",
            "primitives" : [
                {
                    "attributes" : {
                        "POSITION" : 0,
                        "NORMAL" : 1,
                        "TEXCOORD_0" : 2
                    },
                    "indices" : 3,
                    "material" : 0
                },
                {
                    "attributes" : {
                        "POSITION" : 4,
                        "NORMAL" : 5,
                        "TEXCOORD_0" : 6
                    },
                    "indices" : 7,
                    "material" : 1
                },
                {
                    "attributes" : {
                        "POSITION" : 8,
                        "NORMAL" : 9,
                        "TEXCOORD_0" : 10
                    },
                    "indices" : 11,
                    "material" : 2
                },
                {
                    "attributes" : {
                        "POSITION" : 12,
                        "NORMAL" : 13,
                        "TEXCOORD_0" : 14
                    },
                    "indices" : 15,
                    "material" : 3
                },
                {
                    "attributes" : {
                        "POSITION" : 16,
                        "NORMAL" : 17,
                        "TEXCOORD_0" : 18
                    },
                    "indices" : 19,
                    "material" : 4
                },
                {
                    "attributes" : {
                        "POSITION" : 20,
                        "NORMAL" : 21,
                        "TEXCOORD_0" : 22
                    },
                    "indices" : 23,
                    "material" : 5
                },
                {
                    "attributes" : {
                        "POSITION" : 24,
                        "NORMAL" : 25,
                        "TEXCOORD_0" : 26
                    },
                    "indices" : 27,
                    "material" : 6
                },
                {
                    "attributes" : {
                        "POSITION" : 28,
                        "NORMAL" : 29,
                        "TEXCOORD_0" : 30
                    },
                    "indices" : 31,
                    "material" : 7
                },
                {
                    "attributes" : {
                        "POSITION" : 32,
                        "NORMAL" : 33,
                        "TEXCOORD_0" : 34
                    },
                    "indices" : 35,
                    "material" : 8
                }
            ]
        }
    ],
    "accessors" : [
        {
            "bufferView" : 0,
            "componentType" : 5126,
            "count" : 24,
            "max" : [
                1.2643098831176758,
                16.80617904663086,
                0.5715494155883789
            ],
            "min" : [
                -0.7756949067115784,
                15.796178817749023,
                -0.7284526824951172
            ],
            "type" : "VEC3"
        },
        {
            "bufferView" : 1,
            "componentType" : 5126,
            "count" : 24,
            "type" : "VEC3"
        },
        {
            "bufferView" : 2,
            "componentType" : 5126,
            "count" : 24,
            "type" : "VEC2"
        },
        {
            "bufferView" : 3,
            "componentType" : 5123,
            "count" : 36,
            "type" : "SCALAR"
        },
        {
            "bufferView" : 4,
            "componentType" : 5126,
            "count" : 48,
            "max" : [
                0.42378395795822144,
                16.496679306030273,
                -0.4062681198120117
            ],
            "min" : [
                0.06558191776275635,
                16.177978515625,
                -0.569732666015625
            ],
            "type" : "VEC3"
        },
        {
            "bufferView" : 5,
            "componentType" : 5126,
            "count" : 48,
            "type" : "VEC3"
        },
        {
            "bufferView" : 6,
            "componentType" : 5126,
            "count" : 48,
            "type" : "VEC2"
        },
        {
            "bufferView" : 7,
            "componentType" : 5123,
            "count" : 144,
            "type" : "SCALAR"
        },
        {
            "bufferView" : 8,
            "componentType" : 5126,
            "count" : 240,
            "max" : [
                0.42378395795822144,
                16.496679306030273,
                -0.4062681198120117
            ],
            "min" : [
                0.06558191776275635,
                16.173377990722656,
                -0.5786333084106445
            ],
            "type" : "VEC3"
        },
        {
            "bufferView" : 9,
            "componentType" : 5126,
            "count" : 240,
            "type" : "VEC3"
        },
        {
            "bufferView" : 10,
            "componentType" : 5126,
            "count" : 240,
            "type" : "VEC2"
        },
        {
            "bufferView" : 11,
            "componentType" : 5123,
            "count" : 432,
            "type" : "SCALAR"
        },
        {
            "bufferView" : 12,
            "componentType" : 5126,
            "count" : 120,
            "max" : [
                0.40470999479293823,
                16.479679107666016,
                -0.41497135162353516
            ],
            "min" : [
                0.08465512096881866,
                16.15837860107422,
                -0.6322126388549805
            ],
            "type" : "VEC3"
        },
        {
            "bufferView" : 13,
            "componentType" : 5126,
            "count" : 120,
            "type" : "VEC3"
        },
        {
            "bufferView" : 14,
            "componentType" : 5126,
            "count" : 120,
            "type" : "VEC2"
        },
        {
            "bufferView" : 15,
            "componentType" : 5123,
            "count" : 210,
            "type" : "SCALAR"
        },
        {
            "bufferView" : 16,
            "componentType" : 5126,
            "count" : 2858,
            "max" : [
                7.683159351348877,
                18.215181350708008,
                0.5715522766113281
            ],
            "min" : [
                -7.194549560546875,
                -25.404821395874023,
                -5.9084625244140625
            ],
            "type" : "VEC3"
        },
        {
            "bufferView" : 17,
            "componentType" : 5126,
            "count" : 2858,
            "type" : "VEC3"
        },
        {
            "bufferView" : 18,
            "componentType" : 5126,
            "count" : 2858,
            "type" : "VEC2"
        },
        {
            "bufferView" : 19,
            "componentType" : 5123,
            "count" : 6810,
            "type" : "SCALAR"
        },
        {
            "bufferView" : 20,
            "componentType" : 5126,
            "count" : 186,
            "max" : [
                7.2831597328186035,
                18.215181350708008,
                0.30308055877685547
            ],
            "min" : [
                -6.794549465179443,
                -21.978221893310547,
                -5.639983177185059
            ],
            "type" : "VEC3"
        },
        {
            "bufferView" : 21,
            "componentType" : 5126,
            "count" : 186,
            "type" : "VEC3"
        },
        {
            "bufferView" : 22,
            "componentType" : 5126,
            "count" : 186,
            "type" : "VEC2"
        },
        {
            "bufferView" : 23,
            "componentType" : 5123,
            "count" : 516,
            "type" : "SCALAR"
        },
        {
            "bufferView" : 24,
            "componentType" : 5126,
            "count" : 4369,
            "max" : [
                6.84166955947876,
                7.025179862976074,
                0.5715522766113281
            ],
            "min" : [
                -6.3530592918396,
                -22.254823684692383,
                -5.90845251083374
            ],
            "type" : "VEC3"
        },
        {
            "bufferView" : 25,
            "componentType" : 5126,
            "count" : 4369,
            "type" : "VEC3"
        },
        {
            "bufferView" : 26,
            "componentType" : 5126,
            "count" : 4369,
            "type" : "VEC2"
        },
        {
            "bufferView" : 27,
            "componentType" : 5123,
            "count" : 6555,
            "type" : "SCALAR"
        },
        {
            "bufferView" : 28,
            "componentType" : 5126,
            "count" : 3936,
            "max" : [
                3.07820987701416,
                18.215179443359375,
                -4.590271949768066
            ],
            "min" : [
                -2.5621397495269775,
                18.185178756713867,
                -4.909173011779785
            ],
            "type" : "VEC3"
        },
        {
            "bufferView" : 29,
            "componentType" : 5126,
            "count" : 3936,
            "type" : "VEC3"
        },
        {
            "bufferView" : 30,
            "componentType" : 5126,
            "count" : 3936,
            "type" : "VEC2"
        },
        {
            "bufferView" : 31,
            "componentType" : 5123,
            "count" : 7740,
            "type" : "SCALAR"
        },
        {
            "bufferView" : 32,
            "componentType" : 5126,
            "count" : 648,
            "max" : [
                0.5063649415969849,
                16.103578567504883,
                -0.28102684020996094
            ],
            "min" : [
                -0.04459726810455322,
                15.925678253173828,
                -0.3838787078857422
            ],
            "type" : "VEC3"
        },
        {
            "bufferView" : 33,
            "componentType" : 5126,
            "count" : 648,
            "type" : "VEC3"
        },
        {
            "bufferView" : 34,
            "componentType" : 5126,
            "count" : 648,
            "type" : "VEC2"
        },
        {
            "bufferView" : 35,
            "componentType" : 5123,
            "count" : 1248,
            "type" : "SCALAR"
        }
    ],
    "bufferViews" : [
        {
            "buffer" : 0,
            "byteLength" : 288,
            "byteOffset" : 0
        },
        {
            "buffer" : 0,
            "byteLength" : 288,
            "byteOffset" : 288
        },
        {
            "buffer" : 0,
            "byteLength" : 192,
            "byteOffset" : 576
        },
        {
            "buffer" : 0,
            "byteLength" : 72,
            "byteOffset" : 768
        },
        {
            "buffer" : 0,
            "byteLength" : 576,
            "byteOffset" : 840
        },
        {
            "buffer" : 0,
            "byteLength" : 576,
            "byteOffset" : 1416
        },
        {
            "buffer" : 0,
            "byteLength" : 384,
            "byteOffset" : 1992
        },
        {
            "buffer" : 0,
            "byteLength" : 288,
            "byteOffset" : 2376
        },
        {
            "buffer" : 0,
            "byteLength" : 2880,
            "byteOffset" : 2664
        },
        {
            "buffer" : 0,
            "byteLength" : 2880,
            "byteOffset" : 5544
        },
        {
            "buffer" : 0,
            "byteLength" : 1920,
            "byteOffset" : 8424
        },
        {
            "buffer" : 0,
            "byteLength" : 864,
            "byteOffset" : 10344
        },
        {
            "buffer" : 0,
            "byteLength" : 1440,
            "byteOffset" : 11208
        },
        {
            "buffer" : 0,
            "byteLength" : 1440,
            "byteOffset" : 12648
        },
        {
            "buffer" : 0,
            "byteLength" : 960,
            "byteOffset" : 14088
        },
        {
            "buffer" : 0,
            "byteLength" : 420,
            "byteOffset" : 15048
        },
        {
            "buffer" : 0,
            "byteLength" : 34296,
            "byteOffset" : 15468
        },
        {
            "buffer" : 0,
            "byteLength" : 34296,
            "byteOffset" : 49764
        },
        {
            "buffer" : 0,
            "byteLength" : 22864,
            "byteOffset" : 84060
        },
        {
            "buffer" : 0,
            "byteLength" : 13620,
            "byteOffset" : 106924
        },
        {
            "buffer" : 0,
            "byteLength" : 2232,
            "byteOffset" : 120544
        },
        {
            "buffer" : 0,
            "byteLength" : 2232,
            "byteOffset" : 122776
        },
        {
            "buffer" : 0,
            "byteLength" : 1488,
            "byteOffset" : 125008
        },
        {
            "buffer" : 0,
            "byteLength" : 1032,
            "byteOffset" : 126496
        },
        {
            "buffer" : 0,
            "byteLength" : 52428,
            "byteOffset" : 127528
        },
        {
            "buffer" : 0,
            "byteLength" : 52428,
            "byteOffset" : 179956
        },
        {
            "buffer" : 0,
            "byteLength" : 34952,
            "byteOffset" : 232384
        },
        {
            "buffer" : 0,
            "byteLength" : 13110,
            "byteOffset" : 267336
        },
        {
            "buffer" : 0,
            "byteLength" : 47232,
            "byteOffset" : 280448
        },
        {
            "buffer" : 0,
            "byteLength" : 47232,
            "byteOffset" : 327680
        },
        {
            "buffer" : 0,
            "byteLength" : 31488,
            "byteOffset" : 374912
        },
        {
            "buffer" : 0,
            "byteLength" : 15480,
            "byteOffset" : 406400
        },
        {
            "buffer" : 0,
            "byteLength" : 7776,
            "byteOffset" : 421880
        },
        {
            "buffer" : 0,
            "byteLength" : 7776,
            "byteOffset" : 429656
        },
        {
            "buffer" : 0,
            "byteLength" : 5184,
            "byteOffset" : 437432
        },
        {
            "buffer" : 0,
            "byteLength" : 2496,
            "byteOffset" : 442616
        }
    ],
    "buffers" : [
        {
            "byteLength" : 445112,
            "uri" : "data:application/octet-stream;base64,"
        }
    ]
}
